<svg width="36" height="36" viewBox="0 0 36 36" fill="none" xmlns="http://www.w3.org/2000/svg">
  <rect x="4.5" y="4.5" width="27" height="27" rx="13.5" fill="#1F2938" stroke="#1F2938" stroke-width="3"/>
  <path fill-rule="evenodd" clip-rule="evenodd" d="M15.0646 11.2944C16.3218 8.95135 19.6817 8.95135 20.939 11.2944L25.927 20.5903C27.1186 22.8109 25.5099 25.4997 22.9898 25.4997L13.0137 25.4997C10.4936 25.4997 8.88499 22.8109 10.0765 20.5903L15.0646 11.2944ZM19.4704 12.0824C18.8418 10.9109 17.1618 10.9109 16.5332 12.0824L11.5451 21.3783C10.9494 22.4886 11.7537 23.833 13.0137 23.833L22.9898 23.833C24.2499 23.833 25.0542 22.4886 24.4584 21.3783L19.4704 12.0824Z" fill="white" stroke="white" stroke-linecap="round" stroke-linejoin="round" />
  <path fill-rule="evenodd" clip-rule="evenodd" d="M18.0013 14.25C18.4615 14.25 18.8346 14.6231 18.8346 15.0833V18.8333C18.8346 19.2936 18.4615 19.6667 18.0013 19.6667C17.5411 19.6667 17.168 19.2936 17.168 18.8333V15.0833C17.168 14.6231 17.5411 14.25 18.0013 14.25Z" fill="white" />
  <path d="M18.8346 21.7493C18.8346 22.2096 18.4615 22.5827 18.0013 22.5827C17.5411 22.5827 17.168 22.2096 17.168 21.7493C17.168 21.2891 17.5411 20.916 18.0013 20.916C18.4615 20.916 18.8346 21.2891 18.8346 21.7493Z" fill="white" stroke="white" stroke-linecap="round" stroke-linejoin="round" />
</svg>
  